<mxfile host="app.diagrams.net" agent="Mozilla/5.0 (Macintosh; Intel Mac OS X 10_15_7) AppleWebKit/537.36 (KHTML, like Gecko) Chrome/130.0.0.0 Safari/537.36" version="24.8.6">
  <diagram name="Page-1" id="XJSEP3GNmWB5ftduhLJC">
    <mxGraphModel dx="77" dy="302" grid="0" gridSize="10" guides="1" tooltips="1" connect="1" arrows="1" fold="1" page="0" pageScale="1" pageWidth="850" pageHeight="1100" math="0" shadow="0">
      <root>
        <mxCell id="0" />
        <mxCell id="1" parent="0" />
        <mxCell id="YbwDGyMakOkkDczVJa2m-119" value="Tug of War" style="rounded=1;whiteSpace=wrap;html=1;fillColor=none;dashed=1;align=center;verticalAlign=top;strokeColor=#0000FF;arcSize=7;" parent="1" vertex="1">
          <mxGeometry x="604" y="85" width="383" height="388" as="geometry" />
        </mxCell>
        <mxCell id="YbwDGyMakOkkDczVJa2m-30" value="Flip-Flop Synchronizer" style="rounded=1;whiteSpace=wrap;html=1;fillColor=none;dashed=1;align=center;verticalAlign=top;strokeColor=#d79b00;" parent="1" vertex="1">
          <mxGeometry x="612" y="115" width="117" height="253" as="geometry" />
        </mxCell>
        <mxCell id="YbwDGyMakOkkDczVJa2m-72" value="Lights" style="rounded=1;whiteSpace=wrap;html=1;fillColor=none;dashed=1;align=center;verticalAlign=top;strokeColor=#00CC00;" parent="1" vertex="1">
          <mxGeometry x="743" y="147" width="117" height="315" as="geometry" />
        </mxCell>
        <mxCell id="YbwDGyMakOkkDczVJa2m-94" value="&amp;nbsp;" style="rounded=0;orthogonalLoop=1;jettySize=auto;html=1;exitX=0.75;exitY=0;exitDx=0;exitDy=0;strokeColor=default;entryX=0;entryY=0.5;entryDx=0;entryDy=0;edgeStyle=orthogonalEdgeStyle;elbow=vertical;" parent="1" source="YbwDGyMakOkkDczVJa2m-75" target="YbwDGyMakOkkDczVJa2m-98" edge="1">
          <mxGeometry x="0.2187" y="1" relative="1" as="geometry">
            <mxPoint x="915" y="261" as="targetPoint" />
            <Array as="points">
              <mxPoint x="835" y="172" />
              <mxPoint x="883" y="172" />
            </Array>
            <mxPoint y="1" as="offset" />
          </mxGeometry>
        </mxCell>
        <mxCell id="YbwDGyMakOkkDczVJa2m-32" value="User Input" style="rounded=1;whiteSpace=wrap;html=1;fillColor=none;dashed=1;align=center;verticalAlign=top;strokeColor=#FF3333;" parent="1" vertex="1">
          <mxGeometry x="608" y="90" width="125" height="376" as="geometry" />
        </mxCell>
        <mxCell id="YbwDGyMakOkkDczVJa2m-2" value="KEY0" style="endArrow=classic;html=1;rounded=0;entryX=0.75;entryY=0;entryDx=0;entryDy=0;edgeStyle=orthogonalEdgeStyle;" parent="1" target="YbwDGyMakOkkDczVJa2m-1" edge="1">
          <mxGeometry x="-0.9213" width="50" height="50" relative="1" as="geometry">
            <mxPoint x="562" y="156" as="sourcePoint" />
            <mxPoint x="599.5" y="156.25" as="targetPoint" />
            <mxPoint as="offset" />
          </mxGeometry>
        </mxCell>
        <mxCell id="YbwDGyMakOkkDczVJa2m-4" value="SW9" style="endArrow=classic;html=1;rounded=0;entryX=0.25;entryY=0;entryDx=0;entryDy=0;edgeStyle=orthogonalEdgeStyle;" parent="1" target="YbwDGyMakOkkDczVJa2m-1" edge="1">
          <mxGeometry x="-0.8962" width="50" height="50" relative="1" as="geometry">
            <mxPoint x="562" y="186" as="sourcePoint" />
            <mxPoint x="599.5" y="185.75" as="targetPoint" />
            <mxPoint as="offset" />
          </mxGeometry>
        </mxCell>
        <mxCell id="YbwDGyMakOkkDczVJa2m-7" value="KEY3" style="edgeStyle=orthogonalEdgeStyle;rounded=0;orthogonalLoop=1;jettySize=auto;html=1;entryX=0.5;entryY=0;entryDx=0;entryDy=0;" parent="1" target="YbwDGyMakOkkDczVJa2m-1" edge="1">
          <mxGeometry x="-0.8978" relative="1" as="geometry">
            <mxPoint x="562" y="171" as="sourcePoint" />
            <mxPoint x="599.5" y="171.01428571428573" as="targetPoint" />
            <mxPoint as="offset" />
          </mxGeometry>
        </mxCell>
        <mxCell id="YbwDGyMakOkkDczVJa2m-13" value="" style="edgeStyle=orthogonalEdgeStyle;rounded=0;orthogonalLoop=1;jettySize=auto;html=1;entryX=0.5;entryY=0;entryDx=0;entryDy=0;exitX=0.5;exitY=1;exitDx=0;exitDy=0;" parent="1" source="YbwDGyMakOkkDczVJa2m-1" target="YbwDGyMakOkkDczVJa2m-10" edge="1">
          <mxGeometry relative="1" as="geometry">
            <mxPoint x="434" y="419.00000000000006" as="sourcePoint" />
          </mxGeometry>
        </mxCell>
        <mxCell id="YbwDGyMakOkkDczVJa2m-33" value="" style="edgeStyle=orthogonalEdgeStyle;rounded=0;orthogonalLoop=1;jettySize=auto;html=1;entryX=0.5;entryY=0;entryDx=0;entryDy=0;exitX=0.5;exitY=1;exitDx=0;exitDy=0;" parent="1" source="YbwDGyMakOkkDczVJa2m-10" target="YbwDGyMakOkkDczVJa2m-25" edge="1">
          <mxGeometry relative="1" as="geometry">
            <mxPoint x="608" y="418.76000000000005" as="sourcePoint" />
            <mxPoint x="680" y="418.76" as="targetPoint" />
          </mxGeometry>
        </mxCell>
        <mxCell id="YbwDGyMakOkkDczVJa2m-35" value="" style="group" parent="1" vertex="1" connectable="0">
          <mxGeometry x="619" y="391" width="103" height="59" as="geometry" />
        </mxCell>
        <mxCell id="YbwDGyMakOkkDczVJa2m-25" value="&lt;div style=&quot;font-size: 16px;&quot;&gt;&lt;font style=&quot;font-size: 16px;&quot;&gt;Edge Detector&lt;/font&gt;&lt;/div&gt;" style="rounded=0;whiteSpace=wrap;html=1;" parent="YbwDGyMakOkkDczVJa2m-35" vertex="1">
          <mxGeometry width="103" height="59" as="geometry" />
        </mxCell>
        <mxCell id="YbwDGyMakOkkDczVJa2m-29" value="" style="triangle;whiteSpace=wrap;html=1;rotation=0;" parent="YbwDGyMakOkkDczVJa2m-35" vertex="1">
          <mxGeometry y="16.5" width="20" height="26" as="geometry" />
        </mxCell>
        <mxCell id="YbwDGyMakOkkDczVJa2m-36" value="" style="group" parent="1" vertex="1" connectable="0">
          <mxGeometry x="619" y="297" width="103" height="59" as="geometry" />
        </mxCell>
        <mxCell id="YbwDGyMakOkkDczVJa2m-10" value="&lt;span style=&quot;font-size: 20px;&quot;&gt;DFF&lt;/span&gt;" style="rounded=0;whiteSpace=wrap;html=1;" parent="YbwDGyMakOkkDczVJa2m-36" vertex="1">
          <mxGeometry width="103" height="59" as="geometry" />
        </mxCell>
        <mxCell id="YbwDGyMakOkkDczVJa2m-14" value="" style="triangle;whiteSpace=wrap;html=1;rotation=0;" parent="YbwDGyMakOkkDczVJa2m-36" vertex="1">
          <mxGeometry y="16.5" width="20" height="26" as="geometry" />
        </mxCell>
        <mxCell id="YbwDGyMakOkkDczVJa2m-37" value="" style="group" parent="1" vertex="1" connectable="0">
          <mxGeometry x="619" y="200" width="103" height="59" as="geometry" />
        </mxCell>
        <mxCell id="YbwDGyMakOkkDczVJa2m-1" value="&lt;span style=&quot;font-size: 20px;&quot;&gt;DFF&lt;/span&gt;" style="rounded=0;whiteSpace=wrap;html=1;" parent="YbwDGyMakOkkDczVJa2m-37" vertex="1">
          <mxGeometry width="103" height="59" as="geometry" />
        </mxCell>
        <mxCell id="YbwDGyMakOkkDczVJa2m-109" value="" style="triangle;whiteSpace=wrap;html=1;rotation=0;" parent="YbwDGyMakOkkDczVJa2m-37" vertex="1">
          <mxGeometry y="16.5" width="20" height="26" as="geometry" />
        </mxCell>
        <mxCell id="YbwDGyMakOkkDczVJa2m-48" value="" style="group" parent="1" vertex="1" connectable="0">
          <mxGeometry x="782" y="401" width="70" height="39" as="geometry" />
        </mxCell>
        <mxCell id="YbwDGyMakOkkDczVJa2m-45" value="&lt;div style=&quot;&quot;&gt;Light 1&lt;/div&gt;" style="rounded=0;whiteSpace=wrap;html=1;" parent="YbwDGyMakOkkDczVJa2m-48" vertex="1">
          <mxGeometry width="70" height="39" as="geometry" />
        </mxCell>
        <mxCell id="YbwDGyMakOkkDczVJa2m-46" value="" style="triangle;whiteSpace=wrap;html=1;rotation=-90;" parent="YbwDGyMakOkkDczVJa2m-48" vertex="1">
          <mxGeometry x="29" y="22.5" width="12" height="21" as="geometry" />
        </mxCell>
        <mxCell id="YbwDGyMakOkkDczVJa2m-49" value="" style="group" parent="1" vertex="1" connectable="0">
          <mxGeometry x="782" y="340" width="70" height="39" as="geometry" />
        </mxCell>
        <mxCell id="YbwDGyMakOkkDczVJa2m-50" value="&lt;div style=&quot;&quot;&gt;&lt;font style=&quot;font-size: 12px;&quot;&gt;Light 2&lt;/font&gt;&lt;/div&gt;" style="rounded=0;whiteSpace=wrap;html=1;" parent="YbwDGyMakOkkDczVJa2m-49" vertex="1">
          <mxGeometry width="70" height="39" as="geometry" />
        </mxCell>
        <mxCell id="YbwDGyMakOkkDczVJa2m-51" value="" style="triangle;whiteSpace=wrap;html=1;rotation=-90;" parent="YbwDGyMakOkkDczVJa2m-49" vertex="1">
          <mxGeometry x="29" y="22.5" width="12" height="21" as="geometry" />
        </mxCell>
        <mxCell id="YbwDGyMakOkkDczVJa2m-52" style="edgeStyle=orthogonalEdgeStyle;rounded=0;orthogonalLoop=1;jettySize=auto;html=1;exitX=0.25;exitY=0;exitDx=0;exitDy=0;entryX=0.25;entryY=1;entryDx=0;entryDy=0;" parent="1" source="YbwDGyMakOkkDczVJa2m-45" target="YbwDGyMakOkkDczVJa2m-50" edge="1">
          <mxGeometry relative="1" as="geometry" />
        </mxCell>
        <mxCell id="YbwDGyMakOkkDczVJa2m-53" style="edgeStyle=orthogonalEdgeStyle;rounded=0;orthogonalLoop=1;jettySize=auto;html=1;exitX=1;exitY=0.5;exitDx=0;exitDy=0;" parent="1" source="YbwDGyMakOkkDczVJa2m-25" target="YbwDGyMakOkkDczVJa2m-45" edge="1">
          <mxGeometry relative="1" as="geometry" />
        </mxCell>
        <mxCell id="YbwDGyMakOkkDczVJa2m-54" style="edgeStyle=orthogonalEdgeStyle;rounded=0;orthogonalLoop=1;jettySize=auto;html=1;exitX=1;exitY=0.5;exitDx=0;exitDy=0;entryX=0;entryY=0.5;entryDx=0;entryDy=0;" parent="1" source="YbwDGyMakOkkDczVJa2m-25" target="YbwDGyMakOkkDczVJa2m-50" edge="1">
          <mxGeometry relative="1" as="geometry" />
        </mxCell>
        <mxCell id="YbwDGyMakOkkDczVJa2m-55" style="edgeStyle=orthogonalEdgeStyle;rounded=0;orthogonalLoop=1;jettySize=auto;html=1;exitX=0.75;exitY=1;exitDx=0;exitDy=0;entryX=0.75;entryY=0;entryDx=0;entryDy=0;" parent="1" source="YbwDGyMakOkkDczVJa2m-50" target="YbwDGyMakOkkDczVJa2m-45" edge="1">
          <mxGeometry relative="1" as="geometry" />
        </mxCell>
        <mxCell id="YbwDGyMakOkkDczVJa2m-58" value="" style="group" parent="1" vertex="1" connectable="0">
          <mxGeometry x="782" y="279" width="70" height="39" as="geometry" />
        </mxCell>
        <mxCell id="YbwDGyMakOkkDczVJa2m-59" value="&lt;div style=&quot;&quot;&gt;&lt;font style=&quot;font-size: 12px;&quot;&gt;Light 3&lt;/font&gt;&lt;/div&gt;" style="rounded=0;whiteSpace=wrap;html=1;" parent="YbwDGyMakOkkDczVJa2m-58" vertex="1">
          <mxGeometry width="70" height="39" as="geometry" />
        </mxCell>
        <mxCell id="YbwDGyMakOkkDczVJa2m-60" value="" style="triangle;whiteSpace=wrap;html=1;rotation=-90;" parent="YbwDGyMakOkkDczVJa2m-58" vertex="1">
          <mxGeometry x="29" y="22.5" width="12" height="21" as="geometry" />
        </mxCell>
        <mxCell id="YbwDGyMakOkkDczVJa2m-61" style="edgeStyle=orthogonalEdgeStyle;rounded=0;orthogonalLoop=1;jettySize=auto;html=1;exitX=0.25;exitY=0;exitDx=0;exitDy=0;entryX=0.25;entryY=1;entryDx=0;entryDy=0;" parent="1" target="YbwDGyMakOkkDczVJa2m-59" edge="1">
          <mxGeometry relative="1" as="geometry">
            <mxPoint x="800" y="340" as="sourcePoint" />
          </mxGeometry>
        </mxCell>
        <mxCell id="YbwDGyMakOkkDczVJa2m-62" style="edgeStyle=orthogonalEdgeStyle;rounded=0;orthogonalLoop=1;jettySize=auto;html=1;exitX=0.75;exitY=1;exitDx=0;exitDy=0;entryX=0.75;entryY=0;entryDx=0;entryDy=0;" parent="1" source="YbwDGyMakOkkDczVJa2m-59" edge="1">
          <mxGeometry relative="1" as="geometry">
            <mxPoint x="835" y="340" as="targetPoint" />
          </mxGeometry>
        </mxCell>
        <mxCell id="YbwDGyMakOkkDczVJa2m-63" style="edgeStyle=orthogonalEdgeStyle;rounded=0;orthogonalLoop=1;jettySize=auto;html=1;exitX=1;exitY=0.5;exitDx=0;exitDy=0;entryX=0.006;entryY=0.426;entryDx=0;entryDy=0;entryPerimeter=0;" parent="1" source="YbwDGyMakOkkDczVJa2m-25" target="YbwDGyMakOkkDczVJa2m-59" edge="1">
          <mxGeometry relative="1" as="geometry" />
        </mxCell>
        <mxCell id="YbwDGyMakOkkDczVJa2m-79" style="edgeStyle=orthogonalEdgeStyle;rounded=0;orthogonalLoop=1;jettySize=auto;html=1;exitX=0.75;exitY=1;exitDx=0;exitDy=0;entryX=0.75;entryY=0;entryDx=0;entryDy=0;" parent="1" source="YbwDGyMakOkkDczVJa2m-71" target="YbwDGyMakOkkDczVJa2m-59" edge="1">
          <mxGeometry relative="1" as="geometry" />
        </mxCell>
        <mxCell id="YbwDGyMakOkkDczVJa2m-81" style="edgeStyle=orthogonalEdgeStyle;rounded=0;orthogonalLoop=1;jettySize=auto;html=1;exitX=0.25;exitY=0;exitDx=0;exitDy=0;entryX=0.25;entryY=1;entryDx=0;entryDy=0;" parent="1" source="YbwDGyMakOkkDczVJa2m-71" target="YbwDGyMakOkkDczVJa2m-75" edge="1">
          <mxGeometry relative="1" as="geometry" />
        </mxCell>
        <mxCell id="-AKC_ZJ5JNHFNu7MDb8h-2" style="edgeStyle=orthogonalEdgeStyle;rounded=0;orthogonalLoop=1;jettySize=auto;html=1;exitX=1;exitY=0.5;exitDx=0;exitDy=0;entryX=0.5;entryY=1;entryDx=0;entryDy=0;" parent="1" source="YbwDGyMakOkkDczVJa2m-71" target="YbwDGyMakOkkDczVJa2m-88" edge="1">
          <mxGeometry relative="1" as="geometry" />
        </mxCell>
        <mxCell id="YbwDGyMakOkkDczVJa2m-71" value="..." style="text;html=1;align=center;verticalAlign=middle;whiteSpace=wrap;rounded=0;" parent="1" vertex="1">
          <mxGeometry x="782" y="230" width="70" height="34" as="geometry" />
        </mxCell>
        <mxCell id="YbwDGyMakOkkDczVJa2m-64" style="edgeStyle=orthogonalEdgeStyle;rounded=0;orthogonalLoop=1;jettySize=auto;html=1;exitX=1;exitY=0.5;exitDx=0;exitDy=0;entryX=0;entryY=0.5;entryDx=0;entryDy=0;" parent="1" source="YbwDGyMakOkkDczVJa2m-25" target="YbwDGyMakOkkDczVJa2m-75" edge="1">
          <mxGeometry relative="1" as="geometry">
            <mxPoint x="752" y="263.20000000000005" as="targetPoint" />
          </mxGeometry>
        </mxCell>
        <mxCell id="YbwDGyMakOkkDczVJa2m-65" style="edgeStyle=orthogonalEdgeStyle;rounded=0;orthogonalLoop=1;jettySize=auto;html=1;exitX=0.25;exitY=0;exitDx=0;exitDy=0;entryX=0.25;entryY=1;entryDx=0;entryDy=0;" parent="1" source="YbwDGyMakOkkDczVJa2m-59" target="YbwDGyMakOkkDczVJa2m-71" edge="1">
          <mxGeometry relative="1" as="geometry">
            <mxPoint x="799.5999999999999" y="261.6" as="targetPoint" />
          </mxGeometry>
        </mxCell>
        <mxCell id="YbwDGyMakOkkDczVJa2m-80" style="edgeStyle=orthogonalEdgeStyle;rounded=0;orthogonalLoop=1;jettySize=auto;html=1;exitX=0.75;exitY=1;exitDx=0;exitDy=0;entryX=0.75;entryY=0;entryDx=0;entryDy=0;" parent="1" source="YbwDGyMakOkkDczVJa2m-75" target="YbwDGyMakOkkDczVJa2m-71" edge="1">
          <mxGeometry relative="1" as="geometry" />
        </mxCell>
        <mxCell id="YbwDGyMakOkkDczVJa2m-88" value="LEDRs" style="rounded=0;whiteSpace=wrap;html=1;strokeColor=none;fillColor=none;" parent="1" vertex="1">
          <mxGeometry x="848" y="37" width="66" height="29" as="geometry" />
        </mxCell>
        <mxCell id="YbwDGyMakOkkDczVJa2m-89" style="edgeStyle=orthogonalEdgeStyle;rounded=0;orthogonalLoop=1;jettySize=auto;html=1;exitX=1;exitY=0.5;exitDx=0;exitDy=0;entryX=0.5;entryY=1;entryDx=0;entryDy=0;" parent="1" source="YbwDGyMakOkkDczVJa2m-75" target="YbwDGyMakOkkDczVJa2m-88" edge="1">
          <mxGeometry relative="1" as="geometry" />
        </mxCell>
        <mxCell id="YbwDGyMakOkkDczVJa2m-90" style="edgeStyle=orthogonalEdgeStyle;rounded=0;orthogonalLoop=1;jettySize=auto;html=1;exitX=1;exitY=0.5;exitDx=0;exitDy=0;entryX=0.5;entryY=1;entryDx=0;entryDy=0;" parent="1" source="YbwDGyMakOkkDczVJa2m-59" target="YbwDGyMakOkkDczVJa2m-88" edge="1">
          <mxGeometry relative="1" as="geometry" />
        </mxCell>
        <mxCell id="YbwDGyMakOkkDczVJa2m-91" style="edgeStyle=orthogonalEdgeStyle;rounded=0;orthogonalLoop=1;jettySize=auto;html=1;exitX=1;exitY=0.5;exitDx=0;exitDy=0;entryX=0.5;entryY=1;entryDx=0;entryDy=0;" parent="1" source="YbwDGyMakOkkDczVJa2m-50" target="YbwDGyMakOkkDczVJa2m-88" edge="1">
          <mxGeometry relative="1" as="geometry" />
        </mxCell>
        <mxCell id="YbwDGyMakOkkDczVJa2m-102" style="edgeStyle=orthogonalEdgeStyle;rounded=0;orthogonalLoop=1;jettySize=auto;html=1;exitX=0.5;exitY=0;exitDx=0;exitDy=0;entryX=0.5;entryY=1;entryDx=0;entryDy=0;" parent="1" source="YbwDGyMakOkkDczVJa2m-98" target="YbwDGyMakOkkDczVJa2m-101" edge="1">
          <mxGeometry relative="1" as="geometry" />
        </mxCell>
        <mxCell id="YbwDGyMakOkkDczVJa2m-98" value="Victory Display" style="rounded=0;whiteSpace=wrap;html=1;" parent="1" vertex="1">
          <mxGeometry x="914" y="156" width="66" height="31" as="geometry" />
        </mxCell>
        <mxCell id="YbwDGyMakOkkDczVJa2m-75" value="&lt;div style=&quot;&quot;&gt;&lt;font style=&quot;font-size: 12px;&quot;&gt;Light 9&lt;/font&gt;&lt;/div&gt;" style="rounded=0;whiteSpace=wrap;html=1;" parent="1" vertex="1">
          <mxGeometry x="782" y="177" width="70" height="39" as="geometry" />
        </mxCell>
        <mxCell id="YbwDGyMakOkkDczVJa2m-76" value="" style="triangle;whiteSpace=wrap;html=1;rotation=-90;" parent="1" vertex="1">
          <mxGeometry x="811" y="199.5" width="12" height="21" as="geometry" />
        </mxCell>
        <mxCell id="YbwDGyMakOkkDczVJa2m-101" value="HEX0" style="rounded=0;whiteSpace=wrap;html=1;strokeColor=none;fillColor=none;" parent="1" vertex="1">
          <mxGeometry x="914" y="37" width="66" height="29" as="geometry" />
        </mxCell>
        <mxCell id="YbwDGyMakOkkDczVJa2m-92" style="edgeStyle=orthogonalEdgeStyle;rounded=0;orthogonalLoop=1;jettySize=auto;html=1;exitX=1;exitY=0.5;exitDx=0;exitDy=0;entryX=0.5;entryY=1;entryDx=0;entryDy=0;" parent="1" source="YbwDGyMakOkkDczVJa2m-45" target="YbwDGyMakOkkDczVJa2m-88" edge="1">
          <mxGeometry relative="1" as="geometry" />
        </mxCell>
        <mxCell id="YbwDGyMakOkkDczVJa2m-105" style="edgeStyle=orthogonalEdgeStyle;rounded=0;orthogonalLoop=1;jettySize=auto;html=1;exitX=1;exitY=0.75;exitDx=0;exitDy=0;entryX=0.25;entryY=1;entryDx=0;entryDy=0;" parent="1" source="YbwDGyMakOkkDczVJa2m-45" target="YbwDGyMakOkkDczVJa2m-98" edge="1">
          <mxGeometry relative="1" as="geometry" />
        </mxCell>
        <mxCell id="YbwDGyMakOkkDczVJa2m-120" value="" style="endArrow=none;html=1;rounded=0;" parent="1" edge="1">
          <mxGeometry width="50" height="50" relative="1" as="geometry">
            <mxPoint x="662" y="283" as="sourcePoint" />
            <mxPoint x="679" y="266" as="targetPoint" />
          </mxGeometry>
        </mxCell>
        <mxCell id="YbwDGyMakOkkDczVJa2m-122" value="" style="endArrow=none;html=1;rounded=0;" parent="1" edge="1">
          <mxGeometry width="50" height="50" relative="1" as="geometry">
            <mxPoint x="662" y="379" as="sourcePoint" />
            <mxPoint x="679" y="362" as="targetPoint" />
          </mxGeometry>
        </mxCell>
        <mxCell id="YbwDGyMakOkkDczVJa2m-123" value="" style="endArrow=none;html=1;rounded=0;" parent="1" edge="1">
          <mxGeometry width="50" height="50" relative="1" as="geometry">
            <mxPoint x="726" y="429" as="sourcePoint" />
            <mxPoint x="743" y="412" as="targetPoint" />
          </mxGeometry>
        </mxCell>
        <mxCell id="-AKC_ZJ5JNHFNu7MDb8h-1" style="edgeStyle=orthogonalEdgeStyle;rounded=0;orthogonalLoop=1;jettySize=auto;html=1;exitX=1;exitY=0.5;exitDx=0;exitDy=0;entryX=0;entryY=0.5;entryDx=0;entryDy=0;" parent="1" source="YbwDGyMakOkkDczVJa2m-25" target="YbwDGyMakOkkDczVJa2m-71" edge="1">
          <mxGeometry relative="1" as="geometry" />
        </mxCell>
        <mxCell id="-AKC_ZJ5JNHFNu7MDb8h-4" style="edgeStyle=orthogonalEdgeStyle;rounded=0;orthogonalLoop=1;jettySize=auto;html=1;exitX=1;exitY=0.5;exitDx=0;exitDy=0;entryX=0.5;entryY=1;entryDx=0;entryDy=0;" parent="1" source="YbwDGyMakOkkDczVJa2m-25" target="YbwDGyMakOkkDczVJa2m-98" edge="1">
          <mxGeometry relative="1" as="geometry">
            <Array as="points">
              <mxPoint x="752" y="421" />
              <mxPoint x="752" y="449" />
              <mxPoint x="947" y="449" />
            </Array>
          </mxGeometry>
        </mxCell>
        <mxCell id="JjAgY1quwUAtzJ5ZgYIY-1" value="" style="triangle;whiteSpace=wrap;html=1;rotation=-180;" vertex="1" parent="1">
          <mxGeometry x="968" y="164" width="12" height="15" as="geometry" />
        </mxCell>
      </root>
    </mxGraphModel>
  </diagram>
</mxfile>
